<svg width="68" height="33" viewBox="0 0 68 33" fill="none" xmlns="http://www.w3.org/2000/svg">
<path d="M26.623 8.40198V24.2593L33.3961 30.3173V19.0514L32.3196 17.8823H33.3961V7.50922H25.0307L26.623 8.40198Z" fill="#FBFBFB" stroke="white"/>
<path d="M28.8882 23.409V17.8398H29.3592L31.1309 19.7954V25.4709L28.8882 23.409Z" fill="#05BC9A" stroke="#05BC9A"/>
<path d="M34.9435 7.50922H43.0173L41.3939 8.4861V11.5654H39.1428V9.5904H37.0648V15.5579H41.3939V17.8514H37.0648V25.3055L39.1428 23.3942V21.9289H41.3939V24.1799L34.9435 30.2961V7.50922Z" fill="white" stroke="white"/>
<path d="M28.8882 9.5498H31.0861V15.6716H28.8882V9.5498Z" fill="#05BC9A"/>
<path d="M19.9765 16.7832L20.3546 21.1177C19.2416 19.1072 16.322 17.8054 15.0013 17.4057C14.4085 15.6535 11.5988 12.541 10.268 11.2037C14.8531 12.5686 18.6508 15.4921 19.9765 16.7832Z" fill="#FFD700"/>
<path d="M20.6872 24.7605L20.9897 27.7116C20.3364 26.8078 18.4088 25.9978 17.5267 25.7058C17.2605 24.5069 15.9338 22.1475 15.3037 21.1177C16.9127 21.3575 19.6539 23.7691 20.6872 24.7605Z" fill="#FFD700"/>
<path d="M48.2732 16.7832L47.8999 21.1177C48.999 19.1072 51.8821 17.8054 53.1862 17.4057C53.7716 15.6535 56.5462 12.541 57.8603 11.2037C53.3326 12.5686 49.5823 15.4921 48.2732 16.7832Z" fill="#FFD700"/>
<path d="M47.5713 24.7605L47.2727 27.7117C47.9178 26.8079 49.8213 25.9979 50.6924 25.7058C50.9552 24.5069 52.2654 22.1476 52.8876 21.1177C51.2987 21.3575 48.5918 23.7691 47.5713 24.7605Z" fill="#FFD700"/>
<path d="M22.5209 19.4047C22.8446 25.3916 29.4938 30.0573 33 33L22.2662 28.0151L20.543 9.07231C10.0303 1.02748 7.64183 2.52419 4.0157 3.60846C3.56019 2.40088 1.14877 0.936771 0 0.355662C8.8825 -1.49822 18.9847 4.34548 22.9255 7.49906C22.6558 8.97309 22.1973 13.4179 22.5209 19.4047Z" fill="#FFD700"/>
<path d="M45.4791 19.4047C45.1554 25.3916 38.5062 30.0573 35 33L45.7338 28.0151L47.457 9.07231C57.9697 1.02748 60.3582 2.52419 63.9843 3.60846C64.4398 2.40088 66.8512 0.936771 68 0.355662C59.1175 -1.49822 49.0153 4.34548 45.0745 7.49906C45.3442 8.97309 45.8027 13.4179 45.4791 19.4047Z" fill="#FFD700"/>
<path d="M20 14L19.7414 10.6617C15.6886 7.2484 8.05274 6.52016 5 6C7.49493 7.37481 9.27992 8.19259 9.63996 8.84444C13.9604 9.36593 18.4584 12.7226 20 14Z" fill="#FFD700"/>
<path d="M48 14L48.2586 10.6617C52.3114 7.2484 59.9473 6.52016 63 6C60.5051 7.37481 58.7201 8.19259 58.36 8.84444C54.0396 9.36593 49.5416 12.7226 48 14Z" fill="#FFD700"/>
</svg>
