<svg width="561" height="79" viewBox="0 0 561 79" fill="none" xmlns="http://www.w3.org/2000/svg">
<g clip-path="url(#clip0_1_2)">
<path d="M179.7 45.665C181.32 46.295 182.625 47.3 183.615 48.68C184.605 50.06 185.1 51.635 185.1 53.405C185.1 55.775 184.26 57.8 182.58 59.48C180.9 61.16 178.875 62 176.505 62H162.915V30.5H175.47C177.75 30.5 179.7 31.31 181.32 32.93C182.94 34.55 183.75 36.5 183.75 38.78C183.75 40.28 183.375 41.645 182.625 42.875C181.905 44.075 180.93 45.005 179.7 45.665ZM175.47 32.75H165.3V44.81H175.47C177.09 44.81 178.47 44.225 179.61 43.055C180.78 41.855 181.365 40.43 181.365 38.78C181.365 37.13 180.78 35.72 179.61 34.55C178.47 33.35 177.09 32.75 175.47 32.75ZM176.505 59.75C178.215 59.75 179.67 59.135 180.87 57.905C182.1 56.645 182.715 55.145 182.715 53.405C182.715 51.665 182.1 50.18 180.87 48.95C179.67 47.69 178.215 47.06 176.505 47.06H165.3V59.75H176.505ZM200.807 39.005C203.477 39.005 205.592 39.83 207.152 41.48C208.742 43.1 209.537 45.275 209.537 48.005V62H207.242V48.005C207.242 45.905 206.657 44.24 205.487 43.01C204.347 41.78 202.727 41.165 200.627 41.165C198.317 41.165 196.427 41.93 194.957 43.46C193.487 44.99 192.752 47.21 192.752 50.12V62H190.502V30.5H192.752V43.775C194.372 40.595 197.057 39.005 200.807 39.005ZM235.703 39.5H237.998V62H235.703V56.915C234.743 58.655 233.423 60.02 231.743 61.01C230.063 62 228.158 62.495 226.028 62.495C222.818 62.495 220.073 61.37 217.793 59.12C215.513 56.84 214.373 54.05 214.373 50.75C214.373 47.45 215.513 44.675 217.793 42.425C220.073 40.145 222.818 39.005 226.028 39.005C228.158 39.005 230.063 39.5 231.743 40.49C233.423 41.48 234.743 42.845 235.703 44.585V39.5ZM219.413 57.545C221.273 59.405 223.538 60.335 226.208 60.335C228.878 60.335 231.128 59.405 232.958 57.545C234.788 55.685 235.703 53.42 235.703 50.75C235.703 48.08 234.788 45.815 232.958 43.955C231.128 42.095 228.878 41.165 226.208 41.165C223.538 41.165 221.273 42.095 219.413 43.955C217.583 45.815 216.668 48.08 216.668 50.75C216.668 53.42 217.583 55.685 219.413 57.545ZM247.156 43.91C248.506 40.76 251.011 39.185 254.671 39.185V41.345C252.541 41.345 250.756 42.035 249.316 43.415C247.876 44.765 247.156 46.79 247.156 49.49V62H244.906V39.5H247.156V43.91ZM277.67 39.5H279.965V62H277.67V56.915C276.71 58.655 275.39 60.02 273.71 61.01C272.03 62 270.125 62.495 267.995 62.495C264.785 62.495 262.04 61.37 259.76 59.12C257.48 56.84 256.34 54.05 256.34 50.75C256.34 47.45 257.48 44.675 259.76 42.425C262.04 40.145 264.785 39.005 267.995 39.005C270.125 39.005 272.03 39.5 273.71 40.49C275.39 41.48 276.71 42.845 277.67 44.585V39.5ZM261.38 57.545C263.24 59.405 265.505 60.335 268.175 60.335C270.845 60.335 273.095 59.405 274.925 57.545C276.755 55.685 277.67 53.42 277.67 50.75C277.67 48.08 276.755 45.815 274.925 43.955C273.095 42.095 270.845 41.165 268.175 41.165C265.505 41.165 263.24 42.095 261.38 43.955C259.55 45.815 258.635 48.08 258.635 50.75C258.635 53.42 259.55 55.685 261.38 57.545ZM298.394 41.705H291.689V56.33C291.689 57.62 291.929 58.55 292.409 59.12C292.889 59.69 293.624 60.02 294.614 60.11C295.604 60.17 296.864 60.125 298.394 59.975V62C295.364 62.45 293.099 62.24 291.599 61.37C290.129 60.5 289.394 58.82 289.394 56.33V41.705H284.444V39.5H289.394V33.875L291.689 33.2V39.5H298.394V41.705ZM314.098 39.005C316.768 39.005 318.883 39.83 320.443 41.48C322.033 43.1 322.828 45.275 322.828 48.005V62H320.533V48.005C320.533 45.905 319.948 44.24 318.778 43.01C317.638 41.78 316.018 41.165 313.918 41.165C311.608 41.165 309.718 41.93 308.248 43.46C306.778 44.99 306.043 47.21 306.043 50.12V62H303.793V30.5H306.043V43.775C307.663 40.595 310.348 39.005 314.098 39.005ZM344.026 59.75H359.776V62H341.641V30.5H359.551V32.75H344.026V44.99H358.426V47.24H344.026V59.75ZM375.49 39.005C378.16 39.005 380.275 39.83 381.835 41.48C383.425 43.1 384.22 45.275 384.22 48.005V62H381.925V48.005C381.925 45.905 381.34 44.24 380.17 43.01C379.03 41.78 377.41 41.165 375.31 41.165C373 41.165 371.11 41.93 369.64 43.46C368.17 44.99 367.435 47.21 367.435 50.12V62H365.185V39.5H367.435V43.775C369.055 40.595 371.74 39.005 375.49 39.005ZM402.105 41.705H395.4V56.33C395.4 57.62 395.64 58.55 396.12 59.12C396.6 59.69 397.335 60.02 398.325 60.11C399.315 60.17 400.575 60.125 402.105 59.975V62C399.075 62.45 396.81 62.24 395.31 61.37C393.84 60.5 393.105 58.82 393.105 56.33V41.705H388.155V39.5H393.105V33.875L395.4 33.2V39.5H402.105V41.705ZM416.267 39.005C419.567 39.005 422.237 40.175 424.277 42.515C426.347 44.855 427.382 47.63 427.382 50.84C427.382 50.96 427.367 51.14 427.337 51.38C427.337 51.62 427.337 51.8 427.337 51.92H406.952C407.222 54.44 408.227 56.48 409.967 58.04C411.737 59.57 413.912 60.335 416.492 60.335C418.292 60.335 419.867 59.96 421.217 59.21C422.567 58.46 423.587 57.47 424.277 56.24L426.257 57.41C425.327 58.97 424.007 60.215 422.297 61.145C420.587 62.045 418.637 62.495 416.447 62.495C412.997 62.495 410.162 61.4 407.942 59.21C405.722 56.99 404.612 54.17 404.612 50.75C404.612 47.39 405.692 44.6 407.852 42.38C410.042 40.13 412.847 39.005 416.267 39.005ZM416.267 41.165C413.717 41.165 411.587 41.96 409.877 43.55C408.167 45.14 407.192 47.195 406.952 49.715H425.042C424.802 47.045 423.842 44.96 422.162 43.46C420.512 41.93 418.547 41.165 416.267 41.165ZM434.891 43.91C436.241 40.76 438.746 39.185 442.406 39.185V41.345C440.276 41.345 438.491 42.035 437.051 43.415C435.611 44.765 434.891 46.79 434.891 49.49V62H432.641V39.5H434.891V43.91ZM458.892 39.005C462.132 39.005 464.877 40.145 467.127 42.425C469.407 44.675 470.547 47.45 470.547 50.75C470.547 54.05 469.407 56.84 467.127 59.12C464.877 61.37 462.132 62.495 458.892 62.495C456.762 62.495 454.842 61.985 453.132 60.965C451.452 59.945 450.147 58.55 449.217 56.78V71H446.967V39.5H449.217V44.72C450.147 42.95 451.452 41.555 453.132 40.535C454.842 39.515 456.762 39.005 458.892 39.005ZM451.962 57.545C453.822 59.405 456.087 60.335 458.757 60.335C461.427 60.335 463.677 59.405 465.507 57.545C467.367 55.685 468.297 53.42 468.297 50.75C468.297 48.08 467.367 45.815 465.507 43.955C463.677 42.095 461.427 41.165 458.757 41.165C456.087 41.165 453.822 42.095 451.962 43.955C450.132 45.815 449.217 48.08 449.217 50.75C449.217 53.42 450.132 55.685 451.962 57.545ZM478.221 43.91C479.571 40.76 482.076 39.185 485.736 39.185V41.345C483.606 41.345 481.821 42.035 480.381 43.415C478.941 44.765 478.221 46.79 478.221 49.49V62H475.971V39.5H478.221V43.91ZM492.682 33.56C492.322 33.89 491.902 34.055 491.422 34.055C490.942 34.055 490.522 33.89 490.162 33.56C489.802 33.2 489.622 32.765 489.622 32.255C489.622 31.775 489.802 31.37 490.162 31.04C490.522 30.68 490.942 30.5 491.422 30.5C491.902 30.5 492.322 30.68 492.682 31.04C493.042 31.37 493.222 31.775 493.222 32.255C493.222 32.765 493.042 33.2 492.682 33.56ZM490.297 62V39.5H492.547V62H490.297ZM501.012 45.395C501.012 46.505 501.477 47.375 502.407 48.005C503.337 48.635 504.477 49.115 505.827 49.445C507.177 49.745 508.512 50.09 509.832 50.48C511.182 50.87 512.322 51.53 513.252 52.46C514.182 53.36 514.647 54.575 514.647 56.105C514.647 57.965 513.897 59.495 512.397 60.695C510.927 61.895 508.992 62.495 506.592 62.495C504.432 62.495 502.602 62.045 501.102 61.145C499.632 60.215 498.612 59 498.042 57.5L499.977 56.375C500.397 57.605 501.177 58.58 502.317 59.3C503.487 59.99 504.912 60.335 506.592 60.335C508.272 60.335 509.652 59.975 510.732 59.255C511.842 58.505 512.397 57.455 512.397 56.105C512.397 54.995 511.932 54.11 511.002 53.45C510.072 52.79 508.932 52.31 507.582 52.01C506.232 51.68 504.882 51.32 503.532 50.93C502.212 50.54 501.087 49.895 500.157 48.995C499.227 48.095 498.762 46.895 498.762 45.395C498.762 43.595 499.467 42.08 500.877 40.85C502.317 39.62 504.162 39.005 506.412 39.005C508.212 39.005 509.772 39.41 511.092 40.22C512.442 41.03 513.432 42.125 514.062 43.505L512.172 44.585C511.722 43.475 510.972 42.635 509.922 42.065C508.872 41.465 507.702 41.165 506.412 41.165C504.882 41.165 503.592 41.555 502.542 42.335C501.522 43.085 501.012 44.105 501.012 45.395ZM529.558 39.005C532.858 39.005 535.528 40.175 537.568 42.515C539.638 44.855 540.673 47.63 540.673 50.84C540.673 50.96 540.658 51.14 540.628 51.38C540.628 51.62 540.628 51.8 540.628 51.92H520.243C520.513 54.44 521.518 56.48 523.258 58.04C525.028 59.57 527.203 60.335 529.783 60.335C531.583 60.335 533.158 59.96 534.508 59.21C535.858 58.46 536.878 57.47 537.568 56.24L539.548 57.41C538.618 58.97 537.298 60.215 535.588 61.145C533.878 62.045 531.928 62.495 529.738 62.495C526.288 62.495 523.453 61.4 521.233 59.21C519.013 56.99 517.903 54.17 517.903 50.75C517.903 47.39 518.983 44.6 521.143 42.38C523.333 40.13 526.138 39.005 529.558 39.005ZM529.558 41.165C527.008 41.165 524.878 41.96 523.168 43.55C521.458 45.14 520.483 47.195 520.243 49.715H538.333C538.093 47.045 537.133 44.96 535.453 43.46C533.803 41.93 531.838 41.165 529.558 41.165ZM546.583 45.395C546.583 46.505 547.048 47.375 547.978 48.005C548.908 48.635 550.048 49.115 551.398 49.445C552.748 49.745 554.083 50.09 555.403 50.48C556.753 50.87 557.893 51.53 558.823 52.46C559.753 53.36 560.218 54.575 560.218 56.105C560.218 57.965 559.468 59.495 557.968 60.695C556.498 61.895 554.563 62.495 552.163 62.495C550.003 62.495 548.173 62.045 546.673 61.145C545.203 60.215 544.183 59 543.613 57.5L545.548 56.375C545.968 57.605 546.748 58.58 547.888 59.3C549.058 59.99 550.483 60.335 552.163 60.335C553.843 60.335 555.223 59.975 556.303 59.255C557.413 58.505 557.968 57.455 557.968 56.105C557.968 54.995 557.503 54.11 556.573 53.45C555.643 52.79 554.503 52.31 553.153 52.01C551.803 51.68 550.453 51.32 549.103 50.93C547.783 50.54 546.658 49.895 545.728 48.995C544.798 48.095 544.333 46.895 544.333 45.395C544.333 43.595 545.038 42.08 546.448 40.85C547.888 39.62 549.733 39.005 551.983 39.005C553.783 39.005 555.343 39.41 556.663 40.22C558.013 41.03 559.003 42.125 559.633 43.505L557.743 44.585C557.293 43.475 556.543 42.635 555.493 42.065C554.443 41.465 553.273 41.165 551.983 41.165C550.453 41.165 549.163 41.555 548.113 42.335C547.093 43.085 546.583 44.105 546.583 45.395Z" fill="white"/>
<path d="M63.8169 20.14V58.1508L80.0523 72.6724V45.6674L77.4718 42.865H80.0523V18H60L63.8169 20.14Z" fill="#FBFBFB" stroke="white"/>
<path d="M69.2466 56.1127V42.7631H70.3756L74.6226 47.4507V61.0551L69.2466 56.1127Z" fill="#151521" stroke="#151521"/>
<path d="M83.7617 18H103.115L99.2236 20.3416V27.7229H93.8275V22.9887H88.8465V37.2931H99.2236V42.7909H88.8465V60.6587L93.8275 56.0772V52.5647H99.2236V57.9607L83.7617 72.6214V18Z" fill="white" stroke="white"/>
<path d="M69.2466 22.8915H74.5151V37.5659H69.2466V22.8915Z" fill="#151521"/>
<path d="M47.8849 40.2303L48.7911 50.6203C46.1232 45.8011 39.1247 42.6804 35.959 41.7225C34.538 37.5223 27.8029 30.0614 24.613 26.856C35.6037 30.1277 44.707 37.1354 47.8849 40.2303Z" fill="#FFD700"/>
<path d="M49.5886 59.3523L50.3135 66.4263C48.7476 64.2599 44.1271 62.3182 42.0125 61.6182C41.3745 58.7443 38.1943 53.0888 36.6839 50.6202C40.5408 51.195 47.1115 56.9758 49.5886 59.3523Z" fill="#FFD700"/>
<path d="M115.714 40.2303L114.819 50.6203C117.453 45.8011 124.364 42.6804 127.491 41.7225C128.894 37.5223 135.545 30.0614 138.695 26.856C127.841 30.1277 118.852 37.1354 115.714 40.2303Z" fill="#FFD700"/>
<path d="M114.031 59.3524L113.315 66.4264C114.862 64.26 119.425 62.3183 121.513 61.6183C122.143 58.7444 125.283 53.0889 126.775 50.6204C122.966 51.1951 116.477 56.9759 114.031 59.3524Z" fill="#FFD700"/>
<path d="M54.5962 46.1597C55.3808 60.4012 71.5 71.5 80 78.5L53.9786 66.6419L49.8013 21.5811C24.3158 2.44416 18.5256 6.00452 9.73504 8.58375C8.63077 5.71119 2.7849 2.22838 0 0.846042C21.5333 -3.56395 46.0235 10.337 55.5769 17.8387C54.9231 21.3451 53.8115 31.9183 54.5962 46.1597Z" fill="#FFD700"/>
<path d="M109.086 46.4537C108.311 60.7859 92.3938 71.9554 84 79L109.696 67.0664L113.821 21.7186C138.988 2.45972 144.706 6.04276 153.387 8.63843C154.477 5.74757 160.25 2.24257 163 0.851433C141.736 -3.58665 117.552 10.4028 108.118 17.9523C108.763 21.481 109.861 32.1216 109.086 46.4537Z" fill="#FFD700"/>
<path d="M47 33L46.3966 25.0716C36.9402 16.9649 19.1231 15.2354 12 14C17.8215 17.2652 21.9865 19.2074 22.8266 20.7556C32.9077 21.9941 43.403 29.9663 47 33Z" fill="#FFD700"/>
<path d="M116 33L116.621 25.0716C126.347 16.9649 144.673 15.2354 152 14C146.012 17.2652 141.728 19.2074 140.864 20.7556C130.495 21.9941 119.7 29.9663 116 33Z" fill="#FFD700"/>
</g>
<defs>
<clipPath id="clip0_1_2">
<rect width="561" height="79" fill="white"/>
</clipPath>
</defs>
</svg>
